<svg id="Layer_1" data-name="Layer 1" xmlns="http://www.w3.org/2000/svg" viewBox="0 0 575.61 128.26"><defs><style>.cls-1{fill:#a71c20;}.cls-2{isolation:isolate;font-size:18.26px;font-family:ArialMT, Arial;}</style></defs><title>arches-logo-tm-only</title><path class="cls-1" d="M132.35 55.61l-3.65-10c9-4.12 17.91-6.82 29.8-6.82 22.35 0 34.87 11.41 34.87 33v50.09h-11.73V109.5c-5.67 7.5-15.21 14.11-29.67 14.11-15.22 0-30.59-8.56-30.59-25.68 0-17.44 14.27-26.63 35-26.63a87.07 87.07 0 0 1 25.2 3.49v-2.85c0-14.74-9-22.35-24.41-22.35-9.67 0-17.28 2.54-24.89 6m1.43 41.85c0 10.46 9.51 16.49 20.61 16.49 15.06 0 27.42-9.19 27.42-22.19v-7.91a85.41 85.41 0 0 0-24.09-3.49c-15.38 0-23.93 6.66-23.93 17.12m79.73 24.41h-12.2V39.92h12.2v21.4c6-13.63 17.91-23.46 33.45-22.83v13.16h-1c-17.91 0-32.49 12.84-32.49 37.56zm70.38 1.9c-23.93 0-42-19.5-42-42.64 0-23.3 18.07-43 42-43 15.53 0 25.2 6.5 32.81 14.58l-8.08 8.56C302.11 54.5 294.82 49 283.73 49c-16.64 0-29.32 14.11-29.32 31.86 0 17.91 13 32 30.12 32 10.46 0 18.55-5.23 25-12.21l7.77 7.29c-8.24 9.19-18.07 15.85-33.45 15.85m50.88-1.9h-12.17V6.15h12.21v48c5.39-8.88 13.95-16 28.06-16 19.81 0 31.38 13.32 31.38 32.81v50.88h-12.24V74c0-15.22-8.24-24.73-22.67-24.73-14.11 0-24.57 10.3-24.57 25.68v46.92zm106.68-8.72c11.25 0 19.18-4.6 25.84-11.57l7.61 6.82c-8.24 9.19-18.23 15.38-33.76 15.38-22.51 0-40.9-17.28-40.9-42.8 0-23.78 16.65-42.8 39.31-42.8 24.25 0 38.2 19.34 38.2 43.43a33.28 33.28 0 0 1-.16 3.8h-65c1.75 17.75 14.43 27.74 28.85 27.74m23.94-36.77c-1.27-14.9-9.83-27.9-26.15-27.9-14.27 0-25 11.89-26.63 27.9zm46 47.08a56.37 56.37 0 0 1-33.92-12l6.18-8.72c8.88 6.66 18.71 10.46 28.37 10.46 9.83 0 17-5.07 17-13v-.32c0-8.24-9.67-11.41-20.45-14.42-12.84-3.65-27.11-8.08-27.11-23.14V62c0-14.11 11.73-23.46 27.9-23.46a56 56 0 0 1 29.48 9l-5.55 9.19c-7.61-4.91-16.33-7.93-24.25-7.93-9.67 0-15.85 5.07-15.85 11.89V61c0 7.77 10.15 10.78 21.08 14.11 12.68 3.8 26.31 8.72 26.31 23.46v.32c0 15.54-12.84 24.57-29.17 24.57M88.03 57a8 8 0 0 1 7.94-7.94 7.87 7.87 0 0 1 3.61.88 18.12 18.12 0 0 0-10.1-9.75A18.06 18.06 0 0 0 77.97 57v26h23.09v-5.08h-13zm-26 0a20.91 20.91 0 0 1 27.45-19.88 20.69 20.69 0 0 1 2.25.88 21.41 21.41 0 0 1 2.09 1.11 20.86 20.86 0 0 1 2.87 2.1q-.72-1.14-1.45-2.21-.51-.71-1.05-1.39c-.36-.45-.73-.9-1.12-1.33a31 31 0 0 0-16.58-9.62A31.08 31.08 0 0 0 51.97 57v39h49.06v-5h-39zm-26 0a33.9 33.9 0 0 1 40.46-33.28A33 33 0 0 1 83.7 26a34 34 0 0 1 10.08 6.87 44.24 44.24 0 0 0-5.08-6.35q-.85-.89-1.75-1.73c-.6-.56-1.21-1.1-1.83-1.62a43.87 43.87 0 0 0-21.62-9.69A44.08 44.08 0 0 0 25.97 57v52h75v-5.1H36.08zm77.94-1.59v-.67a57.27 57.27 0 0 0-.62-6.54c-.21-1.33-.47-2.64-.77-3.93-.1-.44-.19-.88-.3-1.31a56.72 56.72 0 0 0-1.84-5.85c-.43-1.15-.9-2.27-1.4-3.39A57 57 0 0 0-.03 57v65h114V57v-1.59m-10.06 61.48h-93.8V57a46.88 46.88 0 0 1 80.05-33.14c.63.63 1.24 1.29 1.83 2s1.19 1.38 1.75 2.09a46.92 46.92 0 0 1 5.33 8.41c.26.53.51 1.06.75 1.6s.48 1.1.71 1.66A46.61 46.61 0 0 1 103.91 57v59.89z"/><text class="cls-2" transform="translate(549.25 122.33)">TM</text></svg>